<?xml version="1.0" encoding="utf-8"?>
<svg version="1.1" id="Layer_1" xmlns="http://www.w3.org/2000/svg" xmlns:xlink="http://www.w3.org/1999/xlink" x="0px" y="0px"
	 viewBox="0 0 1000 1000" style="enable-background:new 0 0 1000 1000;" xml:space="preserve">
<style type="text/css">
	.st0{fill:#161616;}
	.st1{fill:#E72429;}
	.st2{fill:#FFFFFF;}
</style>
<g id="Layer_2">
	<path class="st0" d="M900,1000H100C45,1000,0,955,0,900V100C0,45,45,0,100,0h800c55,0,100,45,100,100v800
		C1000,955,955,1000,900,1000z"/>
</g>
<g id="Layer_1_1_">
	<g>
		<path class="st1" d="M308.8,704c1.1,0.5,2.2,0.8,3.2,0.8c1.7,0,3.3-0.6,4.8-1.8l257.4-197c5.2-4,5.2-9-0.1-13l-257-195.9
			c-1.7-1.2-3.3-2-5.1-2c-1,0-2,0.3-3.2,0.8c-2.9,1.4-3.9,4-3.9,7.2v66.5c0,3.1,1,5.4,3.5,7.3c43.3,32.7,162.8,123,162.8,123
			L308.7,622.8c-2.4,1.8-3.8,4-3.8,7.1V697C304.9,700.1,306,702.6,308.8,704z"/>
		<path class="st2" d="M485.7,704c1.1,0.5,2.2,0.8,3.2,0.8c1.7,0,3.3-0.6,4.8-1.8l257.4-197c5.2-4,5.2-9-0.1-13L494,297.1
			c-1.7-1.2-3.3-2-5.1-2c-1,0-2,0.3-3.2,0.8c-2.9,1.4-3.9,4-3.9,7.2v66.5c0,3.1,1,5.4,3.5,7.3c43.3,32.7,162.8,123,162.8,123
			L485.6,622.8c-2.4,1.8-3.8,4-3.8,7.1V697C481.8,700.1,482.9,702.6,485.7,704z"/>
	</g>
</g>
</svg>
