<?xml version="1.0" encoding="utf-8"?>
<svg version="1.1" id="Layer_1" xmlns="http://www.w3.org/2000/svg" xmlns:xlink="http://www.w3.org/1999/xlink" x="0px" y="0px"
	 viewBox="0 0 1000 1000" style="enable-background:new 0 0 1000 1000;" xml:space="preserve">
<style type="text/css">
	.st0{fill:#E72429;}
	.st1{fill:#FFFFFF;}
</style>
<g>
	<g>
		<path class="st0" d="M312.1,718.1c-3.2,0-6.2-0.8-9.2-2.3c-7.1-3.6-11.1-10.4-11.1-18.8l0-67.1c0-4.9,1.6-12,9.1-17.7l148.6-112.3
			c-32.8-24.8-114.9-86.8-148.8-112.4c-5.8-4.3-8.8-10.5-8.8-17.8l0-66.5c0-8.5,4.1-15.5,11.3-19.1c2.9-1.4,5.9-2.1,9-2.1
			c4.6,0,9,1.6,13.1,4.7l257,195.9c5.9,4.5,9.2,10.5,9.2,17c0,6.4-3.2,12.5-9.1,17l-257.4,197C321,716.5,316.6,718.1,312.1,718.1z"
			/>
		<path class="st1" d="M312,295.1c1.8,0,3.4,0.8,5.1,2l257,195.9c5.3,4,5.3,9,0.1,13L316.8,703c-1.5,1.2-3.1,1.8-4.8,1.8
			c-1,0-2.1-0.3-3.2-0.8c-2.8-1.4-3.9-3.9-3.9-7l0-67.1c0-3.1,1.4-5.3,3.8-7.1l162.5-122.9c0,0-119.5-90.3-162.8-123
			c-2.5-1.9-3.5-4.2-3.5-7.3l0-66.5c0-3.2,1-5.8,3.9-7.2C310,295.4,311,295.1,312,295.1 M312,268.7c-5.1,0-10.1,1.2-14.8,3.5
			c-11.7,5.8-18.6,17.3-18.6,30.9h0l0,66.5c0,11.4,5,21.5,14,28.3c29.9,22.5,96.8,73.1,134.9,101.9L292.9,601.8
			c-9.2,6.9-14.3,17-14.3,28.2h0l0,67.1c0,13.2,6.8,24.6,18.3,30.5c4.8,2.4,9.9,3.7,15.2,3.7c7.4,0,14.6-2.5,20.8-7.3L590.2,527
			c9.2-7,14.3-16.8,14.3-27.4c0-10.7-5.1-20.4-14.4-27.5l-257-195.9C325.1,270,317.2,268.7,312,268.7L312,268.7z"/>
	</g>
	<g>
		<path d="M489,718.1c-3.2,0-6.2-0.8-9.2-2.3c-7.1-3.6-11.1-10.4-11.1-18.8l0-67.1c0-4.9,1.6-12,9.1-17.7l148.6-112.3
			c-32.8-24.8-114.9-86.8-148.8-112.4c-5.8-4.3-8.8-10.5-8.8-17.8l0-66.5c0-8.5,4.1-15.5,11.3-19.1c2.9-1.4,5.9-2.1,9-2.1
			c4.6,0,9,1.6,13.1,4.7l257,195.9c5.9,4.5,9.2,10.5,9.2,17c0,6.4-3.2,12.5-9.1,17l-257.4,197C497.9,716.5,493.5,718.1,489,718.1z"
			/>
		<path class="st1" d="M488.9,295.1c1.8,0,3.4,0.8,5.1,2l257,195.9c5.3,4,5.3,9,0.1,13L493.7,703c-1.5,1.2-3.1,1.8-4.8,1.8
			c-1,0-2.1-0.3-3.2-0.8c-2.8-1.4-3.9-3.9-3.9-7l0-67.1c0-3.1,1.4-5.3,3.8-7.1l162.5-122.9c0,0-119.5-90.3-162.8-123
			c-2.5-1.9-3.5-4.2-3.5-7.3l0-66.5c0-3.2,1-5.8,3.9-7.2C486.9,295.4,487.9,295.1,488.9,295.1 M488.9,268.7
			c-5.1,0-10.1,1.2-14.8,3.5c-11.7,5.8-18.6,17.3-18.6,30.9h0l0,66.5c0,11.4,5,21.5,14,28.3c29.9,22.5,96.8,73.1,134.9,101.9
			L469.8,601.8c-9.2,6.9-14.3,17-14.3,28.2h0l0,67.1c0,13.2,6.8,24.6,18.3,30.5c4.8,2.4,9.9,3.7,15.2,3.7c7.4,0,14.6-2.5,20.8-7.3
			L767.1,527c9.2-7,14.3-16.8,14.3-27.4c0-10.7-5.1-20.4-14.4-27.5L510,276.2C502,270,494.1,268.7,488.9,268.7L488.9,268.7z"/>
	</g>
</g>
</svg>
